<?xml version="1.0" encoding="utf-8"?>
<!-- Generator: Adobe Illustrator 19.0.0, SVG Export Plug-In . SVG Version: 6.00 Build 0)  -->
<svg version="1.1" id="elements" xmlns="http://www.w3.org/2000/svg" xmlns:xlink="http://www.w3.org/1999/xlink" x="0px" y="0px"
	 viewBox="0 0 1400 980" style="enable-background:new 0 0 1400 980;" xml:space="preserve">
<style type="text/css">
	.st0{fill:#A3A3A3;}
	.st1{clip-path:url(#SVGID_2_);fill:#D1D1D1;}
	.st2{clip-path:url(#SVGID_2_);fill:#777777;}
	.st3{clip-path:url(#SVGID_2_);fill:#383A37;}
</style>
<rect y="-0.1" class="st0" width="1400" height="980.1"/>
<g>
	<defs>
		<rect id="SVGID_1_" y="-0.1" width="1400" height="980.1"/>
	</defs>
	<clipPath id="SVGID_2_">
		<use xlink:href="#SVGID_1_"  style="overflow:visible;"/>
	</clipPath>
	<path class="st1" d="M649.7,17.8c22.6-20.5,81.3-5.1,93.5,41.7c12.2,46.8,126.1,18.3,130.1,99.6c4.1,81.3-24.8,79.3-22.6,108.8
		c2.3,29.5,74.4,79.3,57.1,117.9c-17.3,38.6-124.3-2.8-172.4-7.5c-48.2-4.7-229.1-20.9-229.1,19.7s100.7,60,44.8,81.3
		c-55.9,21.3-158.6,19.3-177.9-17.3c-19.3-36.6-98.6-11.2-97.6-52.9s177.9-120,237.9-138.3c60-18.3,93.5-8.1,69.1-48.8
		s-81.3-98.6-23.4-101.7c57.9-3,149.4,8.1,129.1-28.5C668,55.4,616.1,48.3,649.7,17.8z"/>
	<path class="st1" d="M76.3,637.9c-24.6-44.7,223.6-37.6,255.2-11.2c31.5,26.4,11.2,47.3-81.3,64.8c-92.5,17.5-52.7,32.2-28.6,55.9
		c24.1,23.7,144.5,59.5,95.7,101.9c-48.8,42.5-122,16.3-111.8,48.8c10.2,32.5,116.9,99.6,64,103.7c-52.9,4.1-61-20.3-95.6-12.2
		c-34.6,8.1,0-24.4-61-22.4c-61,2-110.9-9.1-85.4-49.8C53,876.8,55,847.7,56,819.1c1-28.7,41.7-1.2,57.9-28.7
		c16.3-27.4,25.4-27.4,2-30.5c-23.4-3-87.4-15.2-53.9-36.6c33.5-21.3,85.4,10.2,83.4-19.3s1-42.7-37.6-43.7S83.5,650.8,76.3,637.9z"
		/>
	<path class="st1" d="M772.4,503.1c-13.2,17.3,29.7,10,36.8,40.3s16.6,42.7,0,49.9c-16.6,7.1,0,14.8-19.6,14.2
		c-19.6-0.6-59.4-33.2-80.7-13.1c-21.4,20.2-36.2,28.5-19.6,52.8c16.6,24.3,8.9,28.5-7.1,26.7c-16-1.8-21.4-19-29.1-7.7
		c-7.7,11.3,14.8,30.9,14.8,51.1c0,20.2-24.3,81.3,13.1,72.4c37.4-8.9,12-41,19.1-71.2c7.1-30.3,31.4-49.9,82.5-32.7
		c51.1,17.2,91.4,31.5,97.4,9.5c5.9-22,3-51.3,16.6-48.5c13.7,2.8,17.7,19.5,27.9,12.9c10.2-6.6,27.9-22.6-8.9-35
		c-36.8-12.5-43.3-12.5-36.2-43.3c7.1-30.9,5.1-54-18.4-68.9C837.4,497.7,799.1,468.2,772.4,503.1z"/>
	<path class="st2" d="M1013.9-12.9c-9.4,8.2-33.1,5.2-22.9,21.8c10.3,16.6,33.6,16,26.6,31.7c-6.9,15.7-87,57.4-87,57.4
		s-15.7,1.8-10,21.9c5.7,20.2,43.5-8.2,52.9,30.2c0,0,74.9,5,89.4-15.5c14.5-20.4-18.9-50.8-9.4-65.8s43.5-8.8,40.9-26.4
		s0.6-45.1,5-64.1L1013.9-12.9z"/>
	<path class="st2" d="M834.6,515.1c-3.9-17.1,3.3-29.6,40-25.1s58,7.9,56.2,36.8c-1.8,28.9,25.5,30.5,31.6,51.1
		c6,20.6,15.6,38.9,63.3,30c47.8-8.9,108.9,22.5,102.2,48.9s-125.1,31.1-146.4,55.6c-21.4,24.4-2.5,26.7,47.5,23.3
		s101.1,31.1,81.1,55s-89.1-17.2-119,13.9c-29.9,31.1-67.8,36.7-80.5,44.4c-12.7,7.8-21.6,30,6.2,48.9c27.8,18.9,61.1,10,87.8,27.8
		c26.7,17.8,63.3,62.4,31.1,71.7c-32.2,9.4-112.2,2.8-137.7,0c-25.6-2.8-31.1-31.7-15.6-47.3c15.6-15.6,24.4-41.1,2.2-45.6
		c-22.2-4.4-43.3,23.3-41.1,44.4c2.2,21.1,50.2,60,7.3,60c-42.9,0-51.8-11-79.5-11.6c-27.8-0.6,16.7-46.2-16.7-66.2
		s-44.4-51.1-66.7-38.9c-22.2,12.2-16.7,10.1-23.3,48.9c-6.7,38.8-16.7,69-41.1,56.2c-24.4-12.8-55.6-37.3-48.9-65.1
		c6.7-27.8,23.3-53.3,12.2-74.4c-11.1-21.1-11.1-26.7,17.8-35.6c28.9-8.9,70.4-14.4,46.9-37.8c-23.5-23.3-60.2-52.2-36.9-68.9
		s41.1-38.2,58.9-24.1c17.8,14.1,34.4,48.6,51.1,79.7c16.7,31.1,40,64.4,58.9,32.2c18.9-32.2-37.8-34.4-6.7-61.1
		c31.1-26.7,29.6-14.4,74.2-14.4c44.7,0,76-4.5,74.7-36.3c-1.3-31.8,28.9,17.4,41.1-5.9c12.2-23.3,13.3-40.6-11.1-47
		c-24.4-6.4-33.5-0.8-45.1-27.5c-11.6-26.7-1.6-50-22.7-61.1C866.8,539,841.2,544.4,834.6,515.1z"/>
	<path class="st2" d="M1135.5,202.5c1.8-24,85.6-3.1,101.4,35.9s-11.3,73.7-41.6,76.8c-30.2,3.1-52.9,1.3-42.8,28.3
		c10.1,27.1,52.9,73.7,51.6,90.1c-1.3,16.4-46.6,44.1-41.6,69.3s45.3,77.5,15.7,79.4s-50.4-36.5-68.6-56.7
		c-18.3-20.2-27.1-3.8-36.5,22.7c-9.4,26.4-44.1,18.3-60.5,7.6c-16.4-10.7-10.1-52-13.9-71c-3.8-19.1-67.5-6.5-68.1-32.3
		c-0.6-25.8,66.8-23.9,98.9-25.2s100.1,7.6,94.5-41.6s-34-74.9-52.9-102s8.8-30.9,32.1-39c23.3-8.2,57.9-4.4,50.4-21.4
		S1133.6,227.7,1135.5,202.5z"/>
	<path class="st2" d="M1262.1,202.5c-9.4-11.3-29.6-29.6-15.1-51.6s46.6-22,68,3.8L1262.1,202.5z"/>
	<path class="st2" d="M842.2,53.2c-19.1,9.2,23.6,26.1,8.5,33.4c-15.1,7.3-170.4,16.7-174,55.9c-3.6,39.2,54.4,48.6,42.8,82
		c-11.6,33.4-102.3,31.9-98,65.3s31.2,15.2,39.9,39.2c8.7,23.9,30.2,90,76.4,58.4c46.2-31.6-11.1-99.1,33.9-107.8
		c45-8.7,156,72.6,187.2,12.3c31.2-60.2-23.9-51.5-76.2-80.5s-67.8-53.7-32.1-90c35.7-36.3,72.3,0.7,59.8-50.8
		C898.1,19,863.3,43,842.2,53.2z"/>
	<path class="st2" d="M29.9-32.1c11.3,13.2,40.6,51.6-47.4,74.3L0,66.1c0,0,55.1-56,122.5-49.1c67.4,6.9,59.2,43.4,39.7,63
		s-99,31.5-103.9,57.3s-13.9,66.7,4.4,64.2c18.3-2.5,50.4-38.4,56.7-64.9c6.3-26.4,70.5-25.2,78.1-0.6c7.6,24.6,4.4,51.6-22.7,52.9
		c0,0,30.9,50.4-0.6,62c-31.5,11.6-55.4,6.6-68,14.1c-12.6,7.6,44.9,19.9,81.2,8.2c36.4-11.7,28.3-0.5,56.7,4.8
		c28.3,5.3,38.4-19.3,46.6-30c8.2-10.7-43.4-1.3-51-15.7c-7.6-14.5,0.6-16.4,2.5-37.2c1.9-20.8-22-58.7,39.7-71.8
		s59.8,59.3,81.2,44.1c21.4-15.1,37.8-73.8-18.9-123.2s-62.3-38-65.5-66.4c-3.1-28.3-3.8-42.8-34-40.3
		c-30.2,2.5-78.1-14.5-134.1-47.9c-56-33.4-70.5-59.2-44.1-86.3C92.9-223.5,108-226,86-241.1c-22-15.1-83.1-27.1-97.9,0
		c-14.8,27.1-18.3,29-5.5,53.5C-4.7-163.1,29.9-32.1,29.9-32.1z"/>
	<path class="st2" d="M417.1,533c16.7,0.8,112.5,3.3,134.2,20.4c21.7,17.1,21.5,14.8,16.3,28.8c-5.3,13.9-11.3,19.9-34.2,23.5
		c-22.9,3.6-10.4,12-34.6,18.6c-24.2,6.7-42.5,5.8-64.2,7.5L417.1,533z"/>
	<path class="st3" d="M-17.5,289.4c10.6-9.6,60.6-46.2,64.5-66.4c3.8-20.2-24.1-39.5,0-55.8s72.2-33.7,102-19.2
		c29.8,14.4,52.9,14.4,39.5,41.4c-13.5,26.9-51,41.4-76,50c-25,8.7-53.9,26-33.7,44.3s71.2,24.1,106.8,0s222.3-125.1,266.6-27.9
		c44.3,97.2-100.1,64.5-129,64.5c-28.9,0-94.6,0-101.7,34.6c-7.1,34.6-56.2,47.2-103.3,54.9c-47.2,7.7-39.5,41.4-10.6,62.6
		c28.9,21.2,79.9,42.3,148.2,0c68.3-42.3,171.3,39.5,180.9,80.8c9.6,41.4,19.2,154-48.1,136.7c-67.4-17.3-82.8-85.7-136.7-89.5
		c-53.9-3.9-44.3,77-84.7,74.1c-40.4-2.9,5.8-119.3-56.8-105.9c-62.6,13.5-74.1,26-48.1,49.1c26,23.1,0,36.6-75.1,35.6L-17.5,289.4z
		"/>
	<path class="st3" d="M742.4,370.2c30.5-22.1,93.1-4.1,106,73.8s-29.9,50.4-53,49.2c-23.1-1.2-46.6,5.3-46.6,28.7
		c0,23.4,1.2,56.2-42.2,45.7c-43.3-10.5-80.8-24-72.6-3.5c8.2,20.5,61.5,74.4,28.1,80.2c-33.4,5.9-93.7-40.4-107.2-55
		c-13.5-14.6-125.3-36.3-81.4-53.3c43.9-17,64.4,2.3,91.3-1.8c26.9-4.1,38.1-18.2,12.3-33.4c-25.8-15.2-46.8-28.7-20.5-35.7
		c26.3-7,103.1,5.3,145.8-9.4c42.7-14.6,67.9-10,56.8-31C748.3,403.6,721.3,385.4,742.4,370.2z"/>
	<path class="st3" d="M1100,310c34.2,0,58,88,24,95s-19,24-24,50s-45,19.2-54,48.1c-9,28.9-7,51.9-60,77.9s23.9,93.4-38,80
		c-37-8-3.3-60.8-1-87c5-57,12-34,39-58s11-44,19-68s17-8,17-27s-27-26-16-52s32-7,44-24s-18-28,2-35S1078,310,1100,310z"/>
	<path class="st3" d="M1104.2-19.5c-18.5,3.3-3,28.1,25.1,59.3s31.5,41.8,11.2,38.8c-20.3-3-78.1-13.7-89.5,6.1
		c-11.4,19.8,8,45.6-15.4,47.1c-23.4,1.5-99.4-33.4-95.6,17.5c3.8,50.9,35-6.8,57,31.2c22,38,60.5,49.4,49.7,22.8
		c-10.9-26.6-23.3-63.1,0-49.4c23.3,13.7,52.2,46.4,53,11.4c0.8-35-3.8-61.6,10.6-48.7c14.4,12.9,28.9,57,50.2,25.8
		s35-47.9,38.8-92.7s38-70.7-3.8-69.2C1153.6-18,1133.9-24.8,1104.2-19.5z"/>
	<path class="st3" d="M294.3-18.1c9.3,15,8.7,17.9,9.8,40.5c1.2,22.6,87.4,96.6,175.3,82.8c88-13.9,78.7-28.9,56.7-54.4
		c-22-25.5-66-45.1-83.9-68.9H294.3z"/>
	<path class="st3" d="M-17.5,27c0,0,112.5,45,7.5,141.5C-115,265-17.5,27-17.5,27z"/>
	<path class="st3" d="M-31,753c0,0,130,46,116,100s-76,30-116,0V753z"/>
	<path class="st3" d="M245.6,771.1c20.5-19.1,51.9-30.6,71.1-19.2c19.2,11.4,66.8,34.8,98.1,24.2c31.3-10.7,124.4-5,119.4,22
		c-5,27-4.3,49.7-26.3,44.8c-22-5-90.2,12.8-76,37c14.2,24.2,37,27,37,51.9c0,24.9,12.8,23.5,16.3,43.3c3.6,19.9-53.3,19.2-70.4,22
		c-17.1,2.8,11.4-17.1-19.2-17.1c-30.6,0-95.2-13.4-115.8-31.9c-20.6-18.5-2.8-24.2-6.4-46.9c-3.6-22.7-63.2-32-32.7-51.2
		c30.6-19.2,61.8,27,100.2,22.8c38.4-4.3,68.9-12.1,28.4-28.4c-40.5-16.3-55.4-8.5-89.5-30.6C245.6,791.8,224.3,791,245.6,771.1z"/>
	<path class="st3" d="M1433.5,0c-47,0-140.9-3.9-127.5,44.4s74.2,43.2,63.1,78.5s-133.6,21.8-125.2,78.9c8.4,57,65.4,38.6,77.2,77.2
		c11.7,38.6,38.5,62.8,58.7,82.6c20.2,19.8,41.9,46.6,3.4,43.2c-38.6-3.4-193-31.9-189.6,30.2c3.4,62.1,58.7,25.7,60.4,68.2
		s-28.5,25.8,43.6,69.4c72.1,43.6-139.3,27.1-172.8,72.3c-33.6,45.2,48.7,70.4,25.2,90.5s-60.4,10.1-60.4,57c0,0-110.7-11.7-97.3,52
		c13.4,63.8,137.6,25.4,105.7,80.5s-99,14.3-87.2,72.6c11.7,58.3,112.4,21.4,156,19.7c43.6-1.7-26.8-57,30.2-55.4
		s183.2,60,218.1,18.2s-129.2-118.9-80.5-137.4c48.7-18.5,73.8,45.3,88.9,10.1C1438.5,817.5,1433.5,0,1433.5,0z"/>
	<path class="st1" d="M1131.7-34.3c-17.1,4.8-26.8,43.4-8,45.5c18.7,2.1,61.6-19.8,59.4-5.9c-2.1,13.9-29.8,45,0.1,56.2
		c29.9,11.2,37.4,20.3,41.1-5.9c3.7-26.2-1.6-49.2,20.9-47.1c22.5,2.1,84.6,12.2,92.6-8.6s0-26.2,0-26.2L1131.7-34.3z"/>
</g>
</svg>
